# xmcd
#
# Track frame offsets:
#	150
#	20677
#	38705
#	64552
#	86142
#	105232
#	122755
#	145457
#	172950
#	189370
#	206990
#
# Disc length: 2977 seconds
#
# Revision: 0
# Processed by: cddbd v1.4PL0 Copyright (c) Steve Scherf et al.
# Submitted via: EasyCDDAExtractor 5.0.4.1
#
DISCID=950b9f0b
DTITLE=Hazel Miller - I'm Still Looking
DYEAR=2000
DGENRE=Blues
TTITLE0=I'm Still Looking
TTITLE1=I*C*U*N Everything
TTITLE2=Rivers End
TTITLE3=Moaning Blues
TTITLE4=Do Go On
TTITLE5=Closer
TTITLE6=Heart 2 Heart
TTITLE7=I Already Know
TTITLE8=Sweet Redemption
TTITLE9=Strictly Business
TTITLE10=Rocked My World
EXTD=
EXTT0=
EXTT1=
EXTT2=
EXTT3=
EXTT4=
EXTT5=
EXTT6=
EXTT7=
EXTT8=
EXTT9=
EXTT10=
PLAYORDER=
